<mxfile host="app.diagrams.net" modified="2023-11-03T10:11:46.209Z" agent="Mozilla/5.0 (Windows NT 10.0; Win64; x64; rv:109.0) Gecko/20100101 Firefox/119.0" version="22.0.8" etag="qv3QJgQm7k5O2GEe3koR" type="github">
  <diagram name="Page-1" id="LZB7J8A7qQN9zw53xpzB">
    <mxGraphModel>
      <root>
        <mxCell id="0" />
        <mxCell id="1" parent="0" />
      </root>
    </mxGraphModel>
  </diagram>
</mxfile>
